<svg xmlns="http://www.w3.org/2000/svg" xmlns:xlink="http://www.w3.org/1999/xlink" width="500" zoomAndPan="magnify" viewBox="0 0 375 374.999991" height="500" preserveAspectRatio="xMidYMid meet" version="1.0"><defs><clipPath id="02fa7df12d"><path d="M 37.5 107 L 130 107 L 130 258 L 37.5 258 Z M 37.5 107 " clip-rule="nonzero"/></clipPath><clipPath id="fafbf20d8e"><path d="M 245 107 L 337.5 107 L 337.5 258 L 245 258 Z M 245 107 " clip-rule="nonzero"/></clipPath><clipPath id="4640465f73"><path d="M 144 97 L 229 97 L 229 279.5625 L 144 279.5625 Z M 144 97 " clip-rule="nonzero"/></clipPath></defs><g clip-path="url(#02fa7df12d)"><path fill="#ff2e01" d="M 125.5625 234.613281 L 116.519531 226.167969 L 70.085938 182.703125 L 116.519531 139.261719 L 125.5625 130.820312 C 130.882812 125.835938 131.171875 117.449219 126.191406 112.125 C 121.210938 106.804688 112.820312 106.515625 107.5 111.496094 L 74.597656 142.277344 L 41.695312 173.054688 C 39.019531 175.546875 37.5 179.058594 37.5 182.703125 C 37.5 186.371094 39.019531 189.859375 41.695312 192.351562 L 107.5 253.90625 C 110.042969 256.292969 113.292969 257.472656 116.519531 257.472656 C 120.058594 257.472656 123.570312 256.058594 126.164062 253.277344 C 131.171875 247.957031 130.882812 239.59375 125.5625 234.613281 Z M 125.5625 234.613281 " fill-opacity="1" fill-rule="nonzero"/></g><g clip-path="url(#fafbf20d8e)"><path fill="#ff2e01" d="M 333.304688 173.054688 L 300.402344 142.277344 L 267.5 111.496094 C 262.179688 106.488281 253.789062 106.777344 248.808594 112.101562 C 243.828125 117.421875 244.089844 125.8125 249.4375 130.792969 L 258.480469 139.234375 L 282.339844 161.570312 L 304.914062 182.703125 L 258.457031 226.144531 L 249.410156 234.585938 C 244.089844 239.566406 243.800781 247.957031 248.78125 253.277344 C 251.378906 256.058594 254.917969 257.472656 258.429688 257.472656 C 261.65625 257.472656 264.90625 256.292969 267.476562 253.90625 L 333.277344 192.351562 C 335.953125 189.859375 337.472656 186.347656 337.472656 182.703125 C 337.5 179.03125 335.980469 175.546875 333.304688 173.054688 Z M 333.304688 173.054688 " fill-opacity="1" fill-rule="nonzero"/></g><g clip-path="url(#4640465f73)"><path fill="#ff2e01" d="M 220.363281 98.414062 C 213.519531 95.871094 205.890625 99.359375 203.347656 106.203125 L 145.671875 261.273438 C 143.128906 268.117188 146.613281 275.746094 153.457031 278.289062 C 154.976562 278.867188 156.523438 279.128906 158.070312 279.128906 C 163.445312 279.128906 168.480469 275.824219 170.472656 270.503906 L 228.148438 115.402344 C 230.691406 108.5625 227.230469 100.957031 220.363281 98.414062 Z M 220.363281 98.414062 " fill-opacity="1" fill-rule="nonzero"/></g></svg>