<svg xmlns="http://www.w3.org/2000/svg" xmlns:xlink="http://www.w3.org/1999/xlink" width="500" zoomAndPan="magnify" viewBox="0 0 375 374.999991" height="500" preserveAspectRatio="xMidYMid meet" version="1.0"><defs><clipPath id="aa1daecce4"><path d="M 37.5 142 L 334 142 L 334 330 L 37.5 330 Z M 37.5 142 " clip-rule="nonzero"/></clipPath><clipPath id="35a96a85a8"><path d="M 127 45.09375 L 153 45.09375 L 153 136 L 127 136 Z M 127 45.09375 " clip-rule="nonzero"/></clipPath></defs><g clip-path="url(#aa1daecce4)"><path fill="#ff2e01" d="M 311.851562 175.6875 C 309.152344 185.789062 301.058594 201.253906 276.90625 209.082031 L 275.664062 209.082031 C 277.355469 202.722656 278.652344 196.480469 279.640625 190.527344 C 281.136719 181.503906 281.933594 173.148438 282.328125 166.03125 L 304.359375 166.03125 C 309.410156 166.03125 313.15625 170.808594 311.851562 175.6875 Z M 285.714844 294.796875 C 279.066406 310.140625 263.789062 320.277344 246.917969 320.277344 L 88.707031 320.277344 C 71.765625 320.277344 56.613281 310.300781 49.90625 294.796875 Z M 103.371094 238.347656 C 102.550781 238.898438 101.617188 239.160156 100.699219 239.160156 C 99.144531 239.160156 97.621094 238.410156 96.691406 237.023438 C 77.890625 208.875 78.882812 169.800781 78.933594 168.148438 C 79.015625 165.492188 81.265625 163.402344 83.890625 163.492188 C 86.546875 163.574219 88.636719 165.792969 88.558594 168.449219 C 88.542969 168.824219 87.636719 206.128906 104.699219 231.671875 C 106.175781 233.882812 105.582031 236.875 103.371094 238.347656 Z M 308.015625 142.867188 L 53.019531 142.867188 C 53.019531 142.867188 44.824219 241.539062 109.4375 283.859375 C 110.148438 284.320312 110.867188 284.757812 111.605469 285.167969 L 42.695312 285.167969 C 41.085938 285.167969 39.585938 285.972656 38.695312 287.308594 C 37.800781 288.644531 37.632812 290.339844 38.246094 291.824219 L 40.738281 297.847656 C 48.800781 317.324219 67.628906 329.90625 88.707031 329.90625 L 246.917969 329.90625 C 268.695312 329.90625 288.308594 316.148438 295.726562 295.671875 L 297.195312 291.621094 C 297.722656 290.148438 297.507812 288.503906 296.605469 287.21875 C 295.707031 285.933594 294.230469 285.167969 292.660156 285.167969 L 223.757812 285.167969 C 224.492188 284.757812 225.214844 284.320312 225.925781 283.859375 C 245.449219 271.070312 258.320312 253.144531 266.785156 234.347656 L 267.941406 234.074219 C 316.921875 222.503906 330.699219 194.132812 333.554688 172.082031 C 335.5625 156.605469 323.617188 142.867188 308.015625 142.867188 " fill-opacity="1" fill-rule="nonzero"/></g><path fill="#ff2e01" d="M 99.511719 62.574219 C 102.113281 64.382812 109.035156 70.515625 109.828125 77.058594 C 110.21875 80.285156 109.09375 83.351562 106.386719 86.433594 C 90.996094 103.945312 98.820312 120.273438 105.105469 126.464844 C 106.046875 127.386719 107.269531 127.84375 108.484375 127.84375 C 109.730469 127.84375 110.976562 127.363281 111.917969 126.40625 C 113.78125 124.511719 113.761719 121.460938 111.863281 119.597656 C 111.386719 119.125 100.328125 107.917969 113.617188 92.789062 C 118.191406 87.585938 120.128906 81.886719 119.378906 75.84375 C 117.871094 63.65625 105.511719 55.011719 104.984375 54.652344 C 102.796875 53.144531 99.808594 53.699219 98.300781 55.878906 C 96.789062 58.0625 97.335938 61.058594 99.511719 62.574219 " fill-opacity="1" fill-rule="nonzero"/><g clip-path="url(#35a96a85a8)"><path fill="#ff2e01" d="M 129.433594 54.523438 C 129.558594 54.609375 141.570312 63.066406 142.839844 73.460938 C 143.375 77.859375 141.871094 82.003906 138.242188 86.128906 C 119.597656 107.34375 129.007812 127.054688 136.589844 134.507812 C 137.523438 135.4375 138.746094 135.898438 139.964844 135.898438 C 141.207031 135.898438 142.457031 135.414062 143.398438 134.457031 C 145.261719 132.5625 145.238281 129.511719 143.34375 127.644531 C 142.714844 127.027344 128.117188 112.242188 145.480469 92.488281 C 150.953125 86.257812 153.28125 79.441406 152.390625 72.246094 C 150.566406 57.542969 135.546875 47.039062 134.90625 46.601562 C 132.71875 45.089844 129.730469 45.644531 128.21875 47.828125 C 126.707031 50.011719 127.257812 53.011719 129.433594 54.523438 " fill-opacity="1" fill-rule="nonzero"/></g><path fill="#ff2e01" d="M 168.066406 126.464844 C 169.007812 127.386719 170.226562 127.84375 171.441406 127.84375 C 172.6875 127.84375 173.933594 127.363281 174.878906 126.40625 C 176.742188 124.511719 176.71875 121.460938 174.824219 119.597656 C 174.34375 119.125 163.285156 107.917969 176.574219 92.789062 C 181.148438 87.585938 183.089844 81.886719 182.335938 75.839844 C 180.828125 63.65625 168.46875 55.011719 167.945312 54.652344 C 165.757812 53.144531 162.769531 53.695312 161.261719 55.878906 C 159.75 58.0625 160.292969 61.058594 162.472656 62.574219 C 165.070312 64.382812 171.992188 70.515625 172.785156 77.054688 C 173.179688 80.285156 172.050781 83.351562 169.34375 86.433594 C 153.957031 103.945312 161.78125 120.273438 168.066406 126.464844 " fill-opacity="1" fill-rule="nonzero"/></svg>