<svg xmlns="http://www.w3.org/2000/svg" xmlns:xlink="http://www.w3.org/1999/xlink" width="500" zoomAndPan="magnify" viewBox="0 0 375 374.999991" height="500" preserveAspectRatio="xMidYMid meet" version="1.0"><defs><clipPath id="823ce7d3ed"><path d="M 37.5 108 L 337.5 108 L 337.5 337.5 L 37.5 337.5 Z M 37.5 108 " clip-rule="nonzero"/></clipPath><clipPath id="be1fd877c4"><path d="M 211 37.5 L 295 37.5 L 295 167 L 211 167 Z M 211 37.5 " clip-rule="nonzero"/></clipPath><clipPath id="8f87a7dabe"><path d="M 80 37.5 L 164 37.5 L 164 167 L 80 167 Z M 80 37.5 " clip-rule="nonzero"/></clipPath></defs><g clip-path="url(#823ce7d3ed)"><path fill="#ff2e01" d="M 163.210938 123.214844 C 144.441406 123.214844 126.613281 131.414062 114.398438 145.664062 L 54.753906 215.25 L 179.496094 320.292969 C 181.734375 322.179688 184.570312 323.214844 187.5 323.214844 C 190.429688 323.214844 193.265625 322.179688 195.503906 320.292969 L 320.246094 215.25 L 260.601562 145.664062 C 248.386719 131.414062 230.558594 123.214844 211.789062 123.214844 Z M 103.554688 136.367188 C 118.480469 118.953125 140.273438 108.929688 163.210938 108.929688 L 211.789062 108.929688 C 234.726562 108.929688 256.519531 118.953125 271.445312 136.367188 L 335.78125 211.421875 C 337.019531 212.871094 337.632812 214.75 337.476562 216.648438 C 337.320312 218.550781 336.414062 220.308594 334.957031 221.535156 L 204.707031 331.21875 C 199.890625 335.277344 193.796875 337.5 187.5 337.5 C 181.203125 337.5 175.109375 335.277344 170.292969 331.21875 L 40.042969 221.535156 C 38.585938 220.308594 37.679688 218.550781 37.523438 216.648438 C 37.371094 214.75 37.980469 212.871094 39.21875 211.421875 Z M 103.554688 136.367188 " fill-opacity="1" fill-rule="evenodd"/></g><g clip-path="url(#be1fd877c4)"><path fill="#ff2e01" d="M 290.234375 38.042969 C 292.902344 39.148438 294.644531 41.753906 294.644531 44.644531 L 294.644531 166.070312 L 280.355469 166.070312 L 280.355469 61.886719 L 221.121094 121.121094 L 211.019531 111.019531 L 282.449219 39.59375 C 284.492188 37.550781 287.5625 36.9375 290.234375 38.042969 Z M 290.234375 38.042969 " fill-opacity="1" fill-rule="evenodd"/></g><g clip-path="url(#8f87a7dabe)"><path fill="#ff2e01" d="M 84.765625 38.042969 C 82.097656 39.148438 80.355469 41.753906 80.355469 44.644531 L 80.355469 166.070312 L 94.640625 166.070312 L 94.640625 61.886719 L 153.878906 121.121094 L 163.980469 111.019531 L 92.550781 39.59375 C 90.507812 37.550781 87.433594 36.9375 84.765625 38.042969 Z M 84.765625 38.042969 " fill-opacity="1" fill-rule="evenodd"/></g><path fill="#ff2e01" d="M 304.980469 193.886719 L 254.800781 218.980469 C 235.441406 228.65625 223.214844 248.445312 223.214844 270.089844 L 223.214844 308.929688 L 208.929688 308.929688 L 208.929688 270.089844 C 208.929688 243.03125 224.214844 218.300781 248.414062 206.199219 L 298.589844 181.113281 Z M 304.980469 193.886719 " fill-opacity="1" fill-rule="evenodd"/><path fill="#ff2e01" d="M 70.019531 193.886719 L 120.199219 218.980469 C 139.558594 228.65625 151.785156 248.445312 151.785156 270.089844 L 151.785156 308.929688 L 166.070312 308.929688 L 166.070312 270.089844 C 166.070312 243.03125 150.785156 218.300781 126.585938 206.199219 L 76.410156 181.113281 Z M 70.019531 193.886719 " fill-opacity="1" fill-rule="evenodd"/></svg>