<svg xmlns="http://www.w3.org/2000/svg" xmlns:xlink="http://www.w3.org/1999/xlink" width="500" zoomAndPan="magnify" viewBox="0 0 375 374.999991" height="500" preserveAspectRatio="xMidYMid meet" version="1.0"><defs><clipPath id="d3e0dabce6"><path d="M 37.5 37.5 L 337.5 37.5 L 337.5 337.5 L 37.5 337.5 Z M 37.5 37.5 " clip-rule="nonzero"/></clipPath></defs><g clip-path="url(#d3e0dabce6)"><path fill="#ff2e01" d="M 309.527344 248.0625 C 308.863281 262.6875 306.414062 270.632812 304.386719 275.910156 C 301.65625 282.90625 298.402344 287.910156 293.125 293.15625 C 287.910156 298.402344 282.90625 301.648438 275.910156 304.347656 C 270.632812 306.40625 262.65625 308.863281 248.035156 309.558594 C 232.226562 310.253906 227.539062 310.402344 187.453125 310.402344 C 147.398438 310.402344 142.679688 310.253906 126.867188 309.558594 C 112.246094 308.863281 104.308594 306.40625 99.03125 304.347656 C 91.996094 301.648438 87.03125 298.402344 81.785156 293.15625 C 76.5 287.910156 73.246094 282.90625 70.554688 275.910156 C 68.523438 270.632812 66.042969 262.6875 65.410156 248.0625 C 64.640625 232.253906 64.5 227.496094 64.5 187.488281 C 64.5 147.398438 64.640625 142.679688 65.410156 126.867188 C 66.042969 112.246094 68.523438 104.308594 70.554688 98.988281 C 73.246094 91.996094 76.5 87.023438 81.785156 81.777344 C 87.03125 76.535156 91.996094 73.28125 99.03125 70.554688 C 104.308594 68.488281 112.246094 66.070312 126.867188 65.375 C 142.679688 64.679688 147.398438 64.5 187.453125 64.5 C 227.539062 64.5 232.226562 64.679688 248.035156 65.375 C 262.65625 66.070312 270.632812 68.488281 275.910156 70.554688 C 282.90625 73.28125 287.910156 76.535156 293.125 81.777344 C 298.402344 87.023438 301.65625 91.996094 304.386719 98.988281 C 306.414062 104.308594 308.863281 112.246094 309.527344 126.867188 C 310.261719 142.679688 310.4375 147.398438 310.4375 187.488281 C 310.4375 227.496094 310.261719 232.253906 309.527344 248.0625 Z M 336.527344 125.640625 C 335.792969 109.660156 333.273438 98.742188 329.53125 89.234375 C 325.722656 79.367188 320.617188 71.007812 312.253906 62.648438 C 303.933594 54.324219 295.570312 49.21875 285.707031 45.363281 C 276.160156 41.65625 265.28125 39.109375 249.292969 38.410156 C 233.308594 37.640625 228.199219 37.5 187.453125 37.5 C 146.738281 37.5 141.597656 37.640625 125.609375 38.410156 C 109.660156 39.109375 98.785156 41.65625 89.195312 45.363281 C 79.367188 49.21875 71.007812 54.324219 62.683594 62.648438 C 54.324219 71.007812 49.21875 79.367188 45.371094 89.234375 C 41.664062 98.742188 39.144531 109.660156 38.375 125.640625 C 37.679688 141.625 37.5 146.738281 37.5 187.488281 C 37.5 228.199219 37.679688 233.308594 38.375 249.292969 C 39.144531 265.242188 41.664062 276.15625 45.371094 285.707031 C 49.21875 295.535156 54.324219 303.933594 62.683594 312.253906 C 71.007812 320.578125 79.367188 325.722656 89.195312 329.566406 C 98.785156 333.273438 109.660156 335.792969 125.609375 336.527344 C 141.597656 337.261719 146.738281 337.4375 187.453125 337.4375 C 228.199219 337.4375 233.308594 337.261719 249.292969 336.527344 C 265.28125 335.792969 276.160156 333.273438 285.707031 329.566406 C 295.570312 325.722656 303.933594 320.578125 312.253906 312.253906 C 320.617188 303.933594 325.722656 295.535156 329.53125 285.707031 C 333.273438 276.15625 335.792969 265.242188 336.527344 249.292969 C 337.261719 233.308594 337.4375 228.199219 337.4375 187.488281 C 337.4375 146.738281 337.261719 141.625 336.527344 125.640625 Z M 336.527344 125.640625 " fill-opacity="1" fill-rule="nonzero"/></g><path fill="#ff2e01" d="M 187.453125 237.433594 C 159.859375 237.433594 137.46875 215.082031 137.46875 187.488281 C 137.46875 159.851562 159.859375 137.46875 187.453125 137.46875 C 215.050781 137.46875 237.472656 159.851562 237.472656 187.488281 C 237.472656 215.082031 215.050781 237.433594 187.453125 237.433594 Z M 187.453125 110.429688 C 144.917969 110.429688 110.46875 144.953125 110.46875 187.488281 C 110.46875 229.988281 144.917969 264.472656 187.453125 264.472656 C 229.988281 264.472656 264.472656 229.988281 264.472656 187.488281 C 264.472656 144.953125 229.988281 110.429688 187.453125 110.429688 Z M 187.453125 110.429688 " fill-opacity="1" fill-rule="nonzero"/></svg>