<svg xmlns="http://www.w3.org/2000/svg" xmlns:xlink="http://www.w3.org/1999/xlink" width="2000" zoomAndPan="magnify" viewBox="0 0 1500 1499.999933" height="2000" preserveAspectRatio="xMidYMid meet" version="1.0"><defs><g/><clipPath id="69f0d71905"><path d="M 929 0 L 1500 0 L 1500 524 L 929 524 Z M 929 0 " clip-rule="nonzero"/></clipPath><clipPath id="a7b6db11ad"><path d="M 929.425781 111.535156 L 1341.332031 -69.671875 L 1522.535156 342.234375 L 1110.632812 523.4375 Z M 929.425781 111.535156 " clip-rule="nonzero"/></clipPath><clipPath id="d2fc41586f"><path d="M 1166.496094 338.507812 L 1285.464844 338.507812 L 1285.464844 457.472656 L 1166.496094 457.472656 Z M 1166.496094 338.507812 " clip-rule="nonzero"/></clipPath><clipPath id="2bbd3cb0b2"><path d="M 1225.980469 338.507812 C 1193.128906 338.507812 1166.496094 365.140625 1166.496094 397.992188 C 1166.496094 430.84375 1193.128906 457.472656 1225.980469 457.472656 C 1258.832031 457.472656 1285.464844 430.84375 1285.464844 397.992188 C 1285.464844 365.140625 1258.832031 338.507812 1225.980469 338.507812 Z M 1225.980469 338.507812 " clip-rule="nonzero"/></clipPath></defs><rect x="-150" width="1800" fill="#ffffff" y="-149.999993" height="1799.99992" fill-opacity="1"/><rect x="-150" width="1800" fill="#efedee" y="-149.999993" height="1799.99992" fill-opacity="1"/><g fill="#2e2727" fill-opacity="1"><g transform="translate(150.00002, 1028.732039)"><g><path d="M 33.296875 0 L 33.296875 -13.53125 C 49.253906 -18.382812 60.179688 -28.785156 66.078125 -44.734375 C 71.972656 -60.691406 74.921875 -89.832031 74.921875 -132.15625 L 74.921875 -371.484375 C 74.921875 -395.765625 73.359375 -413.972656 70.234375 -426.109375 C 67.117188 -438.253906 62.613281 -447.101562 56.71875 -452.65625 C 50.820312 -458.207031 43.015625 -463.066406 33.296875 -467.234375 L 33.296875 -478.671875 L 146.71875 -528.625 L 156.09375 -521.34375 L 156.09375 -432.890625 C 187.3125 -457.859375 221.648438 -479.878906 259.109375 -498.953125 C 296.566406 -518.035156 334.023438 -527.578125 371.484375 -527.578125 C 449.878906 -527.578125 498.097656 -494.972656 516.140625 -429.765625 C 547.359375 -454.742188 582.21875 -477.289062 620.71875 -497.40625 C 659.21875 -517.519531 697.890625 -527.578125 736.734375 -527.578125 C 787.378906 -527.578125 825.535156 -513.53125 851.203125 -485.4375 C 876.867188 -457.34375 889.703125 -413.8125 889.703125 -354.84375 L 889.703125 -132.15625 C 889.703125 -89.832031 892.820312 -60.691406 899.0625 -44.734375 C 905.3125 -28.785156 916.066406 -18.382812 931.328125 -13.53125 L 931.328125 0 L 766.921875 0 L 766.921875 -13.53125 C 782.867188 -18.382812 793.789062 -28.785156 799.6875 -44.734375 C 805.59375 -60.691406 808.546875 -89.832031 808.546875 -132.15625 L 808.546875 -336.109375 C 808.546875 -440.859375 769 -493.234375 689.90625 -493.234375 C 660.082031 -493.234375 631.296875 -485.945312 603.546875 -471.375 C 575.796875 -456.8125 547.695312 -438.429688 519.25 -416.234375 C 523.414062 -398.890625 525.5 -378.425781 525.5 -354.84375 L 525.5 -132.15625 C 525.5 -89.832031 528.445312 -60.691406 534.34375 -44.734375 C 540.238281 -28.785156 551.164062 -18.382812 567.125 -13.53125 L 567.125 0 L 402.703125 0 L 402.703125 -13.53125 C 418.660156 -18.382812 429.585938 -28.785156 435.484375 -44.734375 C 441.378906 -60.691406 444.328125 -89.832031 444.328125 -132.15625 L 444.328125 -336.109375 C 444.328125 -440.859375 404.785156 -493.234375 325.703125 -493.234375 C 295.867188 -493.234375 267.25 -486.125 239.84375 -471.90625 C 212.445312 -457.6875 184.53125 -439.820312 156.09375 -418.3125 L 156.09375 -132.15625 C 156.09375 -89.832031 159.039062 -60.691406 164.9375 -44.734375 C 170.832031 -28.785156 181.757812 -18.382812 197.71875 -13.53125 L 197.71875 0 Z M 33.296875 0 "/></g></g></g><g fill="#2e2727" fill-opacity="1"><g transform="translate(1103.189387, 1028.732039)"><g><path d="M -87.40625 289.28125 C -101.28125 289.28125 -113.25 287.195312 -123.3125 283.03125 C -133.375 278.875 -138.40625 272.632812 -138.40625 264.3125 C -138.40625 258.070312 -135.800781 250.613281 -130.59375 241.9375 C -125.394531 233.269531 -118.285156 225.640625 -109.265625 219.046875 C -100.242188 212.453125 -90.179688 209.15625 -79.078125 209.15625 C -65.203125 209.15625 -48.03125 210.890625 -27.5625 214.359375 C -7.101562 217.828125 13.875 221.296875 35.375 224.765625 C 60.351562 206.035156 76.3125 183.140625 83.25 156.078125 C 90.1875 129.023438 93.65625 92.257812 93.65625 45.78125 L 93.65625 -371.484375 C 93.65625 -395.765625 92.09375 -413.972656 88.96875 -426.109375 C 85.84375 -438.253906 81.332031 -447.101562 75.4375 -452.65625 C 69.539062 -458.207031 61.738281 -463.066406 52.03125 -467.234375 L 52.03125 -478.671875 L 165.453125 -528.625 L 174.8125 -521.34375 L 174.8125 -24.96875 C 174.8125 17.34375 166.660156 57.398438 150.359375 95.203125 C 134.054688 133.015625 112.550781 166.488281 85.84375 195.625 C 59.132812 224.769531 30.691406 247.664062 0.515625 264.3125 C -29.660156 280.957031 -58.96875 289.28125 -87.40625 289.28125 Z M 66.59375 -649.328125 C 66.59375 -665.984375 72.140625 -679.859375 83.234375 -690.953125 C 94.335938 -702.054688 107.867188 -707.609375 123.828125 -707.609375 C 140.484375 -707.609375 154.1875 -702.054688 164.9375 -690.953125 C 175.6875 -679.859375 181.0625 -665.984375 181.0625 -649.328125 C 181.0625 -634.066406 175.507812 -620.710938 164.40625 -609.265625 C 153.3125 -597.816406 139.785156 -592.09375 123.828125 -592.09375 C 107.867188 -592.09375 94.335938 -597.816406 83.234375 -609.265625 C 72.140625 -620.710938 66.59375 -634.066406 66.59375 -649.328125 Z M 66.59375 -649.328125 "/></g></g></g><g clip-path="url(#69f0d71905)"><g clip-path="url(#a7b6db11ad)"><path fill="#efedee" d="M 929.425781 111.535156 L 1341.332031 -69.671875 L 1522.535156 342.234375 L 1110.632812 523.4375 Z M 929.425781 111.535156 " fill-opacity="1" fill-rule="nonzero"/></g></g><g clip-path="url(#d2fc41586f)"><g clip-path="url(#2bbd3cb0b2)"><path fill="#ff2e01" d="M 1166.496094 338.507812 L 1285.464844 338.507812 L 1285.464844 457.472656 L 1166.496094 457.472656 Z M 1166.496094 338.507812 " fill-opacity="1" fill-rule="nonzero"/></g></g></svg>